# xmcd
#
# Track frame offsets:
#        150
#        21105
#        34055
#        49950
#        67218
#        86173
#        100855
#        113573
#        130198
#        148635
#        169858
#        183090
#
# Disc length: 2666 seconds
#
# Revision: 0
# Processed by: cddbd v1.5.1PL2 Copyright (c) Steve Scherf et al.
# Submitted via: ExactAudioCopy v0.95a5
#
DISCID=a40a680c
DTITLE=Carpenters - Carpenters (best)
DYEAR=1900
DGENRE=
TTITLE0=A Song For You
TTITLE1=Please Mr. Postman
TTITLE2=Love Me For What I Am
TTITLE3=I Won't Last A Day Without You
TTITLE4=Ticket To Ride
TTITLE5=Bless The Beasts And Children
TTITLE6=Hurting Each Other
TTITLE7=(A Place To) Hideaway
TTITLE8=Goodbye And I Love You
TTITLE9=Solitaire
TTITLE10=Your Wonderful Parade
TTITLE11=All You Get From Love Is A Love Song
EXTD=
EXTT0=
EXTT1=
EXTT2=
EXTT3=
EXTT4=
EXTT5=
EXTT6=
EXTT7=
EXTT8=
EXTT9=
EXTT10=
EXTT11=
PLAYORDER=
